<svg id="레이어_1" data-name="레이어 1" xmlns="http://www.w3.org/2000/svg" viewBox="0 0 43.3 35.94"><defs><style>.cls-1{fill:#ffdcdc;}.cls-2{fill:#222;}.cls-3{fill:#fff;}.cls-4{fill:#ff9f17;}</style></defs><title>congratulation</title><path class="cls-1" d="M27.45,12.64,26.06,13a6.39,6.39,0,0,0,4.65,5.29"/><rect class="cls-1" x="27.15" y="2.78" width="14.91" height="16.07" rx="6.2" ry="6.2"/><circle class="cls-2" cx="31.44" cy="12.02" r="0.77"/><circle class="cls-2" cx="38.98" cy="12.02" r="0.77"/><rect class="cls-2" x="35.95" y="11.51" width="0.23" height="2.91"/><path class="cls-2" d="M36.16,16.55a6.27,6.27,0,0,1-2.63-.65l.1-.2s2.7,1.37,4.51,0l.13.18A3.4,3.4,0,0,1,36.16,16.55Z"/><path class="cls-3" d="M41,26.53a6.81,6.81,0,0,0-5-6.23V20a.87.87,0,0,0-.87-.87h-1a.87.87,0,0,0-.87.87v.27a6.81,6.81,0,0,0-5,6.23c-.2,2.33-1.64,9.19-1.64,9.19H42.64S41.21,28.86,41,26.53Z"/><path class="cls-4" d="M42.92,35.94H26.29l.06-.27c0-.07,1.43-6.87,1.63-9.16a7.07,7.07,0,0,1,5-6.39V20a1.09,1.09,0,0,1,1.09-1.1h1a1.1,1.1,0,0,1,1.1,1.1v.09a7.07,7.07,0,0,1,5,6.39h0c.2,2.29,1.62,9.09,1.63,9.16Zm-16.07-.45H42.36c-.27-1.32-1.4-6.86-1.59-8.94a6.57,6.57,0,0,0-4.83-6l-.18,0V20a.63.63,0,0,0-.64-.64h-1a.63.63,0,0,0-.64.64v.45l-.18,0a6.57,6.57,0,0,0-4.83,6C28.25,28.63,27.12,34.17,26.85,35.49Z"/><path class="cls-1" d="M32.8,18.76s.69.72.71,1l2.19.1s-.07-1.18.75-1.33C36.45,18.58,33,18.17,32.8,18.76Z"/><path class="cls-2" d="M27.3,8.68l-.88.45L26,9.85s.12,3.57.27,3.91h.91s0-4.46.69-4.94"/><rect class="cls-2" x="26.34" y="13.83" width="0.78" height="0.23"/><path class="cls-2" d="M27.34,10.28s0-1.73,1.26-1.94c0,0,12.83,1.53,14.7-4.6,0,0-2.55.7-3.18-.34C38.5.76,33.85-1.62,27.84,2c0,0-4.45.54-3.7,7.66a9.42,9.42,0,0,0,2.59,5.38,4.27,4.27,0,0,1-.39-3.37Z"/><path class="cls-1" d="M26.24,10.3S24.84,10,25,11.67c0,0-.11,1,1.29,1.41"/><path class="cls-2" d="M40.35,6.75s1.43.31,1.71,4.23A8.44,8.44,0,0,0,41.72,6Z"/><path class="cls-4" d="M33.69,20.52a1.82,1.82,0,0,1,1.9,0l-.33.57H34Z"/><polygon class="cls-4" points="33.8 25.28 34.2 21.03 35.09 21.03 35.64 25.43 34.79 27.89 33.8 25.28"/><path class="cls-2" d="M22.92,10.84c0-6-4.43-10.84-9.84-10.84S3.24,4.88,3.24,10.84c0,0-5.08,12.57-2.52,15.57,4,4.71,21.26,5.12,24.72,0C27.64,23.14,22.92,10.84,22.92,10.84Z"/><rect class="cls-1" x="6.65" y="2.78" width="14.91" height="16.07" rx="6.2" ry="6.2"/><path class="cls-2" d="M4.6,10.3S6.65,9,8.07,9.56L8.33,9l.08.65a19.07,19.07,0,0,1,4.37.15l.13-.5.27.55s4.42-.3,5.33.27l.11-1.23.17,1.21s2.67-.19,2.84.21c0,0,.66-5.35-3.46-7.52A12,12,0,0,0,7.47,2.5S3.78,4.51,4.6,10.3Z"/><path class="cls-1" d="M5.74,10.3S4.33,10,4.44,11.67c0,0-.11,1,1.3,1.41"/><circle class="cls-2" cx="10.94" cy="12.02" r="0.77"/><circle class="cls-2" cx="18.47" cy="12.02" r="0.77"/><rect class="cls-2" x="15.45" y="11.51" width="0.23" height="2.91"/><path class="cls-2" d="M15.66,16.55A6.27,6.27,0,0,1,13,15.9l.1-.2s2.7,1.37,4.5,0l.14.18A3.42,3.42,0,0,1,15.66,16.55Z"/><path class="cls-3" d="M20.5,26.53a6.81,6.81,0,0,0-5-6.23V20a.87.87,0,0,0-.87-.87h-1a.87.87,0,0,0-.86.87v.27a6.81,6.81,0,0,0-5,6.23c-.21,2.33-1.64,9.19-1.64,9.19H22.14S20.7,28.86,20.5,26.53Z"/><path class="cls-4" d="M22.42,35.94H5.79l.06-.27c0-.07,1.43-6.87,1.63-9.16a7.06,7.06,0,0,1,5-6.39V20a1.09,1.09,0,0,1,1.09-1.1h1A1.09,1.09,0,0,1,15.71,20v.09a7,7,0,0,1,5,6.39h0c.21,2.29,1.62,9.09,1.64,9.16ZM6.35,35.49H21.86c-.27-1.32-1.4-6.86-1.59-8.94a6.57,6.57,0,0,0-4.83-6l-.18,0V20a.64.64,0,0,0-.64-.64h-1A.63.63,0,0,0,13,20v.45l-.18,0a6.56,6.56,0,0,0-4.83,6C7.75,28.63,6.62,34.17,6.35,35.49Z"/><path class="cls-1" d="M12.3,18.76s.69.72.71,1l2.19.1s-.08-1.18.75-1.33C16,18.58,12.5,18.17,12.3,18.76Z"/><path class="cls-4" d="M13.82,20.39c-.39.34-1.82,1.85-.75,2.23s1.58-1.15,1.63-1.94H14a6.68,6.68,0,0,0,.53,2.84,1.27,1.27,0,0,0,1.52.48c.58-.24.63-1.1.46-1.61-.29-.83-1.22-1.17-1.77-1.79-.29-.32-.77.16-.48.48.43.48,2.06,1.27,1.62,2.08-.24.46-.75.1-.87-.25a4,4,0,0,1-.17-.68c-.09-.51-.12-1-.16-1.55a.34.34,0,0,0-.68,0,2.91,2.91,0,0,1-.08.66.91.91,0,0,1-.37.57c-.16.15-.2.15-.11,0,0-.39.57-.78.84-1s-.15-.77-.48-.48Z"/><path class="cls-4" d="M14,20.79c.23,1.93-.4,3.71-.81,5.56a17.2,17.2,0,0,0-.31,5.06c0,.43.72.44.68,0a17.44,17.44,0,0,1,.49-5.71,13.66,13.66,0,0,0,.63-4.91c-.05-.43-.74-.43-.68,0Z"/><path class="cls-4" d="M14.45,23.46c.72,1.65.68,5.3,2.84,5.83.42.1.61-.55.18-.66-1.16-.28-1.39-2-1.64-3A15.68,15.68,0,0,0,15,23.12c-.17-.4-.76-.06-.59.34Z"/><path class="cls-4" d="M12.89,31.41a4.18,4.18,0,0,0,0,.5.67.67,0,0,0,.31.39.54.54,0,0,0,.74-.6.62.62,0,0,0-.78-.52.55.55,0,0,0-.38.39.55.55,0,0,0,.14.53.34.34,0,0,0,.48,0,.35.35,0,0,0,0-.48c.05.07.06.21-.06.21s0,0-.08,0,0,0,0,0,0-.07,0,0h0a.1.1,0,0,1,.06-.05.11.11,0,0,1,.13,0,.08.08,0,0,1,.08,0s0,.05,0,0,0,0,0,0v-.06a.22.22,0,0,1,0-.08,1.21,1.21,0,0,0,0-.19.34.34,0,0,0-.68,0Z"/><path class="cls-4" d="M17.32,28.76c-.12.29-.26.84.16,1a.45.45,0,0,0,.47-.16.5.5,0,0,0,.09-.29.28.28,0,0,0,0-.09v0a.22.22,0,0,1-.15.2l-.42-.24a.38.38,0,0,1,0,.15.34.34,0,0,0,.34.34.35.35,0,0,0,.34-.34,1.22,1.22,0,0,0,0-.33.35.35,0,0,0-.42-.24.41.41,0,0,0-.32.29.51.51,0,0,0,0,.17.22.22,0,0,0,0,.08c0,.15.1.1.3-.16l.15.09,0,0,.09.15s0,0,0,0v0h0a.24.24,0,0,1,0-.08v0a.34.34,0,1,0-.59-.35Z"/></svg>