<svg id="레이어_1" data-name="레이어 1" xmlns="http://www.w3.org/2000/svg" viewBox="0 0 272.98 272.98"><defs><style>.cls-1{fill:#ff7e28;}</style></defs><title>emotion</title><path class="cls-1" d="M136.87,0C209.36.35,273,56.17,273,138.09c0,74-59,135.42-138.21,134.88-75.05-.51-137-60.76-134.71-142.3C2,61.21,59.67.12,136.87,0Zm-1.32,11.52c-70.51,0-124.72,59.34-124.12,125,.65,70.81,58.18,126.38,127.32,125,68.87-1.38,124.37-58.62,123-126.91C260.28,65.59,203.52,10.2,135.55,11.52Z"/><path class="cls-1" d="M231.41,140a95.85,95.85,0,0,1-5.54,35.84C211,218.1,169.51,243.76,124.68,238.55c-44.18-5.13-79.39-42-82.31-86.21C41.55,140,41.55,140,53.78,140H231.41ZM53.48,151.77c3.77,29.92,17.89,52.52,44.25,66.23,31.17,16.22,61.6,13,89.53-7.83,19.18-14.32,29.84-34,32.34-58.4Z"/><path class="cls-1" d="M162.89,114.4l-7.18-6.6c12.1-14.1,43-30.72,61.53-23.94-.63,3.29-1.27,6.65-2,10.48-10-1.72-19.42.33-28,4.89S171,109.32,162.89,114.4Z"/><path class="cls-1" d="M57.42,93.77V82.54c23.38,1.85,45.11,6.23,61,26.13l-9.21,6.41C95.89,98.75,77.19,95.47,57.42,93.77Z"/></svg>