<svg id="레이어_1" data-name="레이어 1" xmlns="http://www.w3.org/2000/svg" viewBox="0 0 272.97 272.98"><defs><style>.cls-1{fill:#ff7e28;}</style></defs><title>emotion</title><path class="cls-1" d="M136.53,0C209.67.2,273.44,56.65,273,138.74c-.42,74.1-59.44,134.61-137.86,134.23C59.8,272.62-2.34,212.22.07,130.51,2.12,60.92,59.82.29,136.53,0Zm2.78,11.58C71,9.17,12.28,65.47,11.45,134.26c-.81,66.72,51.21,124.56,120,127.2a125.15,125.15,0,0,0,130-117.08C265.79,72.11,208.82,12.29,139.31,11.58Z"/><path class="cls-1" d="M199.12,188v10.87H80V188Z"/><path class="cls-1" d="M215.93,93.92c.52,17-13.82,31.13-31.18,31.07A30.79,30.79,0,0,1,154,93.64a68.25,68.25,0,0,1,8.7.13,3.91,3.91,0,0,1,2.57,2.71c.79,9.75,10.89,17.63,20.66,17s16.89-7.3,18.94-18.46a5.49,5.49,0,0,1,.58-1.15Z"/><path class="cls-1" d="M48.45,95.15H59.08c2.19,12.33,9.06,19.78,21.42,19.54,10.17-.19,16.64-6.82,19.56-19.48h10.77c-.16,10.83-4.49,19.28-13.06,25.2-11,7.59-22.67,8.28-34.29,1.29C53.76,115.85,49,107,48.45,95.15Z"/></svg>