<svg id="레이어_1" data-name="레이어 1" xmlns="http://www.w3.org/2000/svg" viewBox="0 0 6.38 4.15"><title>logo</title><path d="M4.55,3.36a3.91,3.91,0,0,1,1.33-.11c.71,0,.63.75-.06.75a27.85,27.85,0,0,0-4.24.11,1.86,1.86,0,0,1-1.21-.2c-.53-.29-.51-.62.2-.54A12.7,12.7,0,0,0,2,3.42a7.28,7.28,0,0,0-.21-1.08.7.7,0,0,0-.31-.29c-.5-.16-.38-.55.16-.55.36,0,.84.11.87.55l.14,1.38H4c0-.16.1-1,.1-1.18a.45.45,0,0,0-.26-.38c-.38-.23-.35-.6.15-.54s1,.23.86.84ZM5.44,0c.71.12.71.71-.05.75-.35,0-1,0-1.79,0-.33,0-2,.09-2.12.14A1.11,1.11,0,0,1,.57.78C.08.5-.39.11.57.18S3,.19,3.8.19A4.82,4.82,0,0,0,4.72,0,4.59,4.59,0,0,1,5.44,0Z"/></svg>