<?xml version="1.0" encoding="UTF-8"?>
<svg width="180px" height="120px" viewBox="0 0 180 120" version="1.1" xmlns="http://www.w3.org/2000/svg" xmlns:xlink="http://www.w3.org/1999/xlink">
    <!-- Generator: Sketch 51.1 (57501) - http://www.bohemiancoding.com/sketch -->
    <title>PRG-black</title>
    <desc>Created with Sketch.</desc>
    <defs></defs>
    <g id="PRG-black" stroke="none" stroke-width="1" fill="none" fill-rule="evenodd">
        <g id="Group" transform="translate(5.000000, 4.000000)" fill="#000000" stroke="#000000" stroke-width="7">
            <path d="M65.298,56.978 C65.969,58.326 66.474,60.004 66.812,62.021 C67.147,64.038 67.315,65.802 67.315,67.315 C67.315,71.853 66.474,75.805 64.795,79.165 C63.113,82.528 61.264,84.206 59.248,84.206 C55.38,84.206 53.237,82.78 52.818,79.92 C52.398,77.064 52.19,74.04 52.19,70.846 C52.19,65.636 51.937,61.643 51.433,58.869 C50.928,56.095 49.119,51.518 46.011,45.129 C42.9,38.742 41.348,34.791 41.348,33.279 C42.017,32.105 42.522,31.514 42.86,31.514 C45.043,31.514 48.825,34.709 54.206,41.094 C59.582,47.485 63.281,52.778 65.298,56.978 Z M147.49,1.26 C151.86,2.103 154.045,4.202 154.045,7.562 C154.045,11.935 150.598,14.118 143.708,14.118 L90.007,14.875 C77.231,14.875 66.055,15.466 56.476,16.639 C53.279,16.978 49.498,17.647 45.13,18.656 C42.943,19.161 40.757,19.581 38.574,19.916 C35.548,19.916 30.968,18.448 24.833,15.504 C18.696,12.566 15.63,10.084 15.63,8.067 C15.63,6.894 16.219,6.303 17.397,6.303 C21.594,6.976 27.228,7.562 34.288,8.067 C41.348,8.572 48.154,8.822 54.709,8.822 L62.526,8.822 C75.298,8.822 86.226,8.406 95.302,7.562 C104.377,6.723 113.033,4.789 121.269,1.764 C124.125,0.591 128.161,0 133.372,0 C138.579,0 143.288,0.42 147.49,1.26 Z M159.593,89.249 C162.783,89.601 165.305,90.558 167.155,92.126 C169.004,93.693 169.929,95.43 169.929,97.344 C169.929,99.26 168.668,100.953 166.148,102.423 C163.626,103.897 159.757,104.629 154.55,104.629 L131.103,103.872 L97.569,104.629 C79.418,104.629 61.851,105.725 44.877,107.906 C41.851,108.246 38.236,108.833 34.036,109.672 C31.849,109.84 29.706,110.175 27.607,110.68 C25.504,111.184 24.116,111.437 23.447,111.437 C20.755,111.437 16.175,109.506 9.706,105.636 C3.235,101.773 0,98.747 0,96.562 C0,95.386 0.587,94.797 1.765,94.797 C5.46,95.639 10.755,96.396 17.649,97.064 C24.539,97.739 31.597,98.074 38.827,98.074 C44.707,98.074 54.541,97.908 68.324,97.569 C82.104,97.235 89.416,97.064 90.259,97.064 L95.302,97.064 C96.139,94.208 96.814,91.857 97.319,90.007 C99.166,83.285 100.596,77.739 101.605,73.365 C102.613,68.997 103.748,63.451 105.008,56.726 C106.268,50.006 106.899,46.055 106.899,44.877 C106.899,42.694 104.461,40.004 99.588,36.808 C94.711,33.617 92.276,31.6 92.276,30.757 C92.276,29.918 92.945,29.331 94.293,28.993 C94.798,28.826 95.637,28.74 96.814,28.74 C100.848,28.74 106.646,30.044 114.211,32.648 C121.774,35.256 125.555,37.987 125.555,40.843 C125.555,42.021 124.964,43.615 123.79,45.632 C122.613,47.649 121.94,48.911 121.774,49.415 C121.774,50.257 118.831,58.326 112.949,73.617 C111.098,78.661 108.16,86.223 104.125,96.309 C109,96.143 113.959,95.891 119,95.552 C124.043,95.218 127.233,94.797 128.581,94.293 C132.447,92.444 136.396,91.14 140.432,90.385 C144.466,89.628 148.076,89.249 151.273,89.249 L159.593,89.249 Z" id="Fill-4"></path>
        </g>
    </g>
</svg>