<svg xmlns="http://www.w3.org/2000/svg" viewBox="0 0 445.48 113.24"><defs><style>.cls-1{fill:#e40044;}.cls-2{fill:none;stroke:#e40044;stroke-miterlimit:10;stroke-width:2px;}</style></defs><title>prdemo_outline</title><g id="레이어_2" data-name="레이어 2"><g id="레이어_1-2" data-name="레이어 1"><path class="cls-1" d="M32.77,3a16,16,0,0,1,7.08,5.9,16.13,16.13,0,0,1,2.49,9,16,16,0,0,1-2.49,9,16.09,16.09,0,0,1-7.08,5.86A26.09,26.09,0,0,1,22,34.79H14v12H1V.92H22A26.1,26.1,0,0,1,32.77,3ZM27.2,22.83a6.14,6.14,0,0,0,2-4.95,6.2,6.2,0,0,0-2-5q-2-1.77-6-1.77H14V24.57h7.21Q25.17,24.57,27.2,22.83Z"/><path class="cls-1" d="M68.67,34.59H61.6V46.77h-13V.92h21A26.1,26.1,0,0,1,80.4,3a16.06,16.06,0,0,1,7.07,5.9,16.13,16.13,0,0,1,2.49,9,16,16,0,0,1-2.32,8.68A15.75,15.75,0,0,1,81,32.36l9.89,14.41H77Zm6.16-21.68q-2-1.77-6-1.77H61.6V24.57h7.2q4,0,6-1.74a6.17,6.17,0,0,0,2-4.95A6.23,6.23,0,0,0,74.83,12.91Z"/><path class="cls-1" d="M107.16,44.61A22.94,22.94,0,0,1,94.74,23.84,22.93,22.93,0,0,1,107.16,3.08a29.27,29.27,0,0,1,26.14,0,23,23,0,0,1,12.41,20.76A23,23,0,0,1,133.3,44.61a29.27,29.27,0,0,1-26.14,0Zm19.36-9.3A11.78,11.78,0,0,0,131,30.69a14,14,0,0,0,1.64-6.85A14,14,0,0,0,131,17a11.78,11.78,0,0,0-4.45-4.62,12.88,12.88,0,0,0-12.58,0A11.74,11.74,0,0,0,109.48,17a14,14,0,0,0-1.63,6.84,14,14,0,0,0,1.63,6.85,11.74,11.74,0,0,0,4.46,4.62,12.88,12.88,0,0,0,12.58,0Z"/><path class="cls-1" d="M183.25,22.86h11.46v19a29.69,29.69,0,0,1-9,4.32,35.79,35.79,0,0,1-10.22,1.51,27.34,27.34,0,0,1-13-3,22.67,22.67,0,0,1-9-8.48,23.43,23.43,0,0,1-3.28-12.32,23.44,23.44,0,0,1,3.28-12.31,22.61,22.61,0,0,1,9.11-8.48,28,28,0,0,1,13.16-3,29.33,29.33,0,0,1,11.53,2.16,22.26,22.26,0,0,1,8.52,6.22l-8.26,7.47a14.56,14.56,0,0,0-11.13-5.11,12.91,12.91,0,0,0-9.5,3.57,12.83,12.83,0,0,0-3.6,9.53,13.82,13.82,0,0,0,1.63,6.78,11.76,11.76,0,0,0,4.59,4.66A13.46,13.46,0,0,0,176.24,37a16.51,16.51,0,0,0,7-1.51Z"/><path class="cls-1" d="M223,34.59h-7.07V46.77H203V.92h21A26.1,26.1,0,0,1,234.74,3a16.06,16.06,0,0,1,7.07,5.9,16.13,16.13,0,0,1,2.49,9A16,16,0,0,1,242,26.56a15.81,15.81,0,0,1-6.65,5.8l9.89,14.41H231.33Zm6.16-21.68q-2-1.77-6-1.77h-7.2V24.57h7.2q4,0,6-1.74a6.17,6.17,0,0,0,2-4.95A6.23,6.23,0,0,0,229.17,12.91Z"/><path class="cls-1" d="M282.16,37.86H262.77l-3.6,8.91H245.94L266.18.92H279l20.31,45.85H285.77Zm-3.8-9.56-5.89-14.67-5.9,14.67Z"/><path class="cls-1" d="M334.7,3a16,16,0,0,1,7.08,5.9,16.13,16.13,0,0,1,2.49,9,16,16,0,0,1-2.49,9,16.09,16.09,0,0,1-7.08,5.86,26.06,26.06,0,0,1-10.81,2.07h-8v12h-13V.92h21A26.06,26.06,0,0,1,334.7,3Zm-5.57,19.85a6.14,6.14,0,0,0,2-4.95,6.2,6.2,0,0,0-2-5q-2-1.77-6-1.77H315.9V24.57h7.21Q327.1,24.57,329.13,22.83Z"/><path class="cls-1" d="M394.19.92V46.77h-13V28.89H363.53V46.77h-13V.92h13V18.15h17.68V.92Z"/><path class="cls-1" d="M427.92,30.33V46.77H415V30.13L397.46.92h13.69L422,19.13,432.9.92h12.58Z"/><path class="cls-2" d="M1,65.46H22.68a30.34,30.34,0,0,1,13.37,2.82,21.27,21.27,0,0,1,9,8A22.52,22.52,0,0,1,48.3,88.39a22.52,22.52,0,0,1-3.21,12.12,21.2,21.2,0,0,1-9,8,30.34,30.34,0,0,1-13.37,2.82H1ZM22.16,101a13.29,13.29,0,0,0,9.47-3.34q3.57-3.34,3.57-9.24t-3.57-9.23a13.3,13.3,0,0,0-9.47-3.35H14V101Z"/><path class="cls-2" d="M93.24,101.3v10H56.42V65.46h36v10H69.26v7.73H89.63v9.69H69.26v8.39Z"/><path class="cls-2" d="M143.15,111.32,143,87,131.23,106.8h-5.76L113.74,87.67v23.65h-12V65.46h10.68l16.12,26.47,15.72-26.47H155l.13,45.86Z"/><path class="cls-2" d="M175.61,109.16a23.45,23.45,0,0,1,0-41.53,29.27,29.27,0,0,1,26.14,0,23.44,23.44,0,0,1,0,41.53,29.27,29.27,0,0,1-26.14,0ZM195,99.86a11.87,11.87,0,0,0,4.46-4.62,15.19,15.19,0,0,0,0-13.69A11.81,11.81,0,0,0,195,76.93a12.88,12.88,0,0,0-12.58,0,11.78,11.78,0,0,0-4.45,4.62,15.1,15.1,0,0,0,0,13.69,11.85,11.85,0,0,0,4.45,4.62,13,13,0,0,0,12.58,0Z"/><path class="cls-2" d="M242.66,65.46h21.69a30.32,30.32,0,0,1,13.36,2.82,21.21,21.21,0,0,1,9,8A22.52,22.52,0,0,1,290,88.39a22.52,22.52,0,0,1-3.21,12.12,21.14,21.14,0,0,1-9,8,30.32,30.32,0,0,1-13.36,2.82H242.66ZM263.82,101a13.29,13.29,0,0,0,9.47-3.34q3.57-3.34,3.57-9.24t-3.57-9.23a13.3,13.3,0,0,0-9.47-3.35h-8.19V101Z"/><path class="cls-2" d="M328.15,102.41H308.76l-3.6,8.91H291.92l20.25-45.86h12.77l20.31,45.86h-13.5Zm-3.8-9.56-5.89-14.68-5.9,14.68Z"/><path class="cls-2" d="M371.91,94.88v16.44h-13V94.68L341.45,65.46h13.69L366,83.68l10.87-18.22h12.58Z"/></g></g></svg>