<svg xmlns="http://www.w3.org/2000/svg" viewBox="0 0 82.36 82.89"><title>prdemo_cir_outline</title><g id="레이어_2" data-name="레이어 2"><g id="레이어_1-2" data-name="레이어 1"><path d="M36.19.69a2.58,2.58,0,0,1,1.3.76,2.61,2.61,0,0,1,.65,1.4A2.71,2.71,0,0,1,38,4.38a2.58,2.58,0,0,1-1,1.14,4.35,4.35,0,0,1-1.69.63l-1.53.25.35,2.1-1.76.29L31.09,1.2,34.38.65A4.19,4.19,0,0,1,36.19.69Zm-.08,3.5a1.2,1.2,0,0,0,.25-1,1.24,1.24,0,0,0-.57-.92,1.91,1.91,0,0,0-1.27-.13l-1.43.24L33.54,5,35,4.73A1.85,1.85,0,0,0,36.11,4.19Z"/><path d="M46,8.13,44.74,5.85h-.09L43.11,5.7,42.9,7.83l-1.77-.17L41.86,0l3.32.31a4.45,4.45,0,0,1,1.73.51A2.68,2.68,0,0,1,48,1.89a2.73,2.73,0,0,1,.26,1.52,2.63,2.63,0,0,1-.55,1.44,2.61,2.61,0,0,1-1.26.83l1.49,2.63Zm.11-5.92a1.83,1.83,0,0,0-1.18-.46l-1.45-.14-.25,2.68,1.45.13a1.92,1.92,0,0,0,1.25-.23,1.28,1.28,0,0,0,.51-1A1.22,1.22,0,0,0,46.12,2.21Z"/><path d="M51.56,9a3.93,3.93,0,0,1-.88-1.88A3.82,3.82,0,0,1,50.92,5a3.94,3.94,0,0,1,1.26-1.7,3.87,3.87,0,0,1,1.92-.77,4.57,4.57,0,0,1,2.2.31,4.48,4.48,0,0,1,1.82,1.28A3.85,3.85,0,0,1,59,6a3.8,3.8,0,0,1-.24,2.09,3.88,3.88,0,0,1-1.26,1.7,3.82,3.82,0,0,1-1.93.77,4.43,4.43,0,0,1-2.19-.31A4.53,4.53,0,0,1,51.56,9ZM55.2,9a2.24,2.24,0,0,0,1.12-.5,2.49,2.49,0,0,0,.76-1.07,2.49,2.49,0,0,0,.18-1.3A2.33,2.33,0,0,0,56.78,5a2.62,2.62,0,0,0-2.29-.91,2.36,2.36,0,0,0-1.13.5,2.64,2.64,0,0,0-.76,1.07A2.75,2.75,0,0,0,52.42,7a2.19,2.19,0,0,0,.49,1.12A2.56,2.56,0,0,0,55.2,9Z"/><path d="M65.72,13,67,14l-1.93,2.46a4.62,4.62,0,0,1-1.59-.33A5.69,5.69,0,0,1,62,15.3a4.46,4.46,0,0,1-1.38-1.73,3.89,3.89,0,0,1-.31-2A4.14,4.14,0,0,1,62.87,8.3a3.82,3.82,0,0,1,2.07-.18,4.55,4.55,0,0,1,2,.94,4.78,4.78,0,0,1,1.24,1.4,3.74,3.74,0,0,1,.48,1.64l-1.56.12a2.63,2.63,0,0,0-1-1.91,2.77,2.77,0,0,0-1.22-.57,2.19,2.19,0,0,0-1.24.14,2.68,2.68,0,0,0-1.58,2,2.15,2.15,0,0,0,.15,1.23A2.59,2.59,0,0,0,63,14.17a2.82,2.82,0,0,0,1.29.6Z"/><path d="M69.18,22.91,70,20.44,70,20.37l-.92-1.25-1.72,1.27L66.27,19l6.19-4.58,2,2.69a4.06,4.06,0,0,1,.78,1.63,2.57,2.57,0,0,1-.09,1.51,2.66,2.66,0,0,1-.95,1.21,2.57,2.57,0,0,1-1.43.54,2.64,2.64,0,0,1-1.47-.37l-1,2.86ZM73.66,19a1.87,1.87,0,0,0-.45-1.19l-.86-1.17-2.16,1.6.87,1.16a1.82,1.82,0,0,0,1,.78,1.23,1.23,0,0,0,1-.26A1.19,1.19,0,0,0,73.66,19Z"/><path d="M74.66,30.52l-1.27-3.34-1.79-.05L71,25.42l8.42.47L80,27.53l-6,6-.67-1.75Zm1.06-1L78,27.32l-3.19-.09Z"/><path d="M82.05,39.55a2.61,2.61,0,0,1-.85,1.25,2.71,2.71,0,0,1-1.44.55,2.68,2.68,0,0,1-1.51-.27A2.59,2.59,0,0,1,77.17,40a4.35,4.35,0,0,1-.5-1.73l-.14-1.55-2.12.2-.16-1.77,7.66-.72.31,3.31A4.17,4.17,0,0,1,82.05,39.55Zm-3.48-.33a1.18,1.18,0,0,0,1,.33,1.22,1.22,0,0,0,1-.51,1.89,1.89,0,0,0,.23-1.25l-.14-1.44L78,36.6,78.11,38A1.81,1.81,0,0,0,78.57,39.22Z"/><path d="M81.11,52.24l-7.58-1.36.32-1.75,3.1.55.62-3.44-3.11-.56.32-1.75,7.58,1.36L82,47l-3-.53L78.44,50l3,.54Z"/><path d="M73.48,57.93,71,56.75l.77-1.61,2.48,1.19L80,55.77l-.81,1.71-4,.38,2.2,3.33-.75,1.58Z"/><path d="M65.64,70.22a2.14,2.14,0,0,1-1.76-.71,2.42,2.42,0,0,1-.64-1.17,2.5,2.5,0,0,1,.14-1.41,4,4,0,0,1,1-1.48,6.12,6.12,0,0,1,1.3-1A4,4,0,0,1,67.1,64l.44,1.47a3.44,3.44,0,0,0-1.08.33,4.14,4.14,0,0,0-1,.69,1.83,1.83,0,0,0-.57.92.82.82,0,0,0,.23.8.84.84,0,0,0,.81.26,2.82,2.82,0,0,0,1.18-.78l1.42-1.37,2.72,3.4L67.88,73l-1-1,2.32-2.23-.93-1.14-.45.44A3.67,3.67,0,0,1,65.64,70.22Z"/><path d="M62.43,75.13l2.11-1.28.75,1.24-5.74,3.48-.76-1.25,2.11-1.27L57.67,70.7l1.52-.92Z"/><path d="M49.27,82.11l-2.16-7.4,1.71-.5.89,3,3.36-1-.89-3,1.71-.5,2.16,7.39-1.71.5-.85-2.92-3.36,1L51,81.61Z"/><path d="M39.23,82.89l-3.47-.46a4.88,4.88,0,0,1-2.13-.76,3.57,3.57,0,0,1-1.31-1.53,3.78,3.78,0,0,1-.27-2.08,3.9,3.9,0,0,1,.8-1.94A3.62,3.62,0,0,1,34.51,75a4.94,4.94,0,0,1,2.26-.18l3.47.46Zm-2.57-6.63a2.57,2.57,0,0,0-1.91.4,2.54,2.54,0,0,0-.45,3.45A2.57,2.57,0,0,0,36,81l1.61.22.63-4.74Z"/><path d="M24.44,72.49,25,71.17l5.49,2.32-3,7.1-5.36-2.27L22.68,77l3.73,1.58L27.06,77l-3.29-1.39.54-1.28,3.29,1.39.7-1.64Z"/><path d="M17.58,65.67l-2.94,3.57,4.18-1.49.61.51-.62,4.3,2.88-3.49L23,70.14l-4.91,5.93-1.14-.94.83-5.52-5.23,1.87-1.13-.93,4.89-5.94Z"/><path d="M13.46,61.45a3.84,3.84,0,0,1-.4,2,4.08,4.08,0,0,1-3.45,2.18,3.81,3.81,0,0,1-2-.51A4.52,4.52,0,0,1,6,63.61a4.4,4.4,0,0,1-.72-2.1,3.82,3.82,0,0,1,.4-2,3.88,3.88,0,0,1,1.43-1.56,3.83,3.83,0,0,1,4-.12,4.47,4.47,0,0,1,1.6,1.55A4.63,4.63,0,0,1,13.46,61.45Zm-2.93-2.16A2.16,2.16,0,0,0,9.33,59a2.52,2.52,0,0,0-1.25.42,2.63,2.63,0,0,0-.91.94,2.3,2.3,0,0,0-.27,1.2,2.47,2.47,0,0,0,.39,1.21,2.55,2.55,0,0,0,.92.87,2.21,2.21,0,0,0,1.21.26,2.45,2.45,0,0,0,1.24-.42,2.48,2.48,0,0,0,.91-.94,2.22,2.22,0,0,0,.28-1.2,2.39,2.39,0,0,0-.4-1.21A2.47,2.47,0,0,0,10.53,59.29Z"/><path d="M.65,50.88.16,47.42a4.82,4.82,0,0,1,.16-2.26,3.54,3.54,0,0,1,1.12-1.67,3.76,3.76,0,0,1,1.93-.82,3.79,3.79,0,0,1,2.08.25A3.55,3.55,0,0,1,7,44.21a4.91,4.91,0,0,1,.79,2.12l.49,3.47Zm5.69-4.25a2.62,2.62,0,0,0-.89-1.74,2.31,2.31,0,0,0-1.83-.43A2.28,2.28,0,0,0,2,45.38a2.6,2.6,0,0,0-.37,1.92l.22,1.61,4.73-.67Z"/><path d="M6.36,34.79l-.5,3.54,1.54.9L7.15,41,0,36.58l.24-1.74,8.11-2.35-.26,1.85Zm-1.42.37L1.85,36,4.6,37.58Z"/><path d="M7.72,26.88l2.52,1-.67,1.65L7,28.52l-5.7.9L2,27.67,6,27.05,3.58,23.86l.66-1.63Z"/></g></g></svg>