
<svg xmlns="http://www.w3.org/2000/svg" xmlns:xlink="http://www.w3.org/1999/xlink" viewBox="0 0 1046.97 306.51"><defs><style>.cls-1{fill:url(#Prography_Demo_Grad_3);}.cls-2,.cls-4{fill:none;stroke-miterlimit:10;}.cls-2{stroke-width:4px;stroke:url(#Prography_Demo_Grad_3);}.cls-3{fill:url(#Prography_Demo_Grad_3-33);}.cls-4{stroke-width:12px;stroke:url(#Prography_Demo_Grad_3-66);}</style><linearGradient id="Prography_Demo_Grad_3" x1="79.1" y1="118.13" x2="972.76" y2="118.13" gradientUnits="userSpaceOnUse"><stop offset="0" stop-color="#e7365c"/><stop offset="0.16" stop-color="#e73b5c"/><stop offset="0.35" stop-color="#e7495c"/><stop offset="0.56" stop-color="#e7615d"/><stop offset="0.78" stop-color="#e7825d"/><stop offset="1" stop-color="#e7ad5e"/><stop offset="1" stop-color="#e7ad5e"/></linearGradient><linearGradient id="Prography_Demo_Grad_3-33" x1="81.9" y1="199.63" x2="970.22" y2="199.63" xlink:href="#Prography_Demo_Grad_3"/><linearGradient id="Prography_Demo_Grad_3-66" x1="185.12" y1="-185.12" x2="861.86" y2="491.63" xlink:href="#Prography_Demo_Grad_3"/></defs><title>자산 1</title><g id="레이어_2" data-name="레이어 2"><g id="text"><path class="cls-1" d="M79.1,141.67V94.58H95.59q7.45,0,11.75,3.51t4.3,10.52q0,7-4.3,10.49t-11.75,3.48h-9v19.09Zm16.49-25.09a9.45,9.45,0,0,0,6.29-2c1.54-1.31,2.3-3.31,2.3-6s-.76-4.7-2.3-6a9.3,9.3,0,0,0-6.29-2h-9v16Z"/><path class="cls-1" d="M127.13,141.67V94.58h17q7.38,0,11.78,3.45t4.39,10.27a12.16,12.16,0,0,1-8.46,12.45L162,141.67h-8.09L144.44,122h-9.86v19.72Zm17-25.73a9.46,9.46,0,0,0,6.44-2,7.09,7.09,0,0,0,2.28-5.65,7.22,7.22,0,0,0-2.28-5.69,9.36,9.36,0,0,0-6.44-2h-9.55v15.35Z"/><path class="cls-1" d="M225.08,118.09a26.23,26.23,0,0,1-1.86,10.08,22.06,22.06,0,0,1-5.22,7.71,23.18,23.18,0,0,1-8,4.93,31.39,31.39,0,0,1-20.61,0,23.18,23.18,0,0,1-8-4.93,22.06,22.06,0,0,1-5.22-7.71,28.24,28.24,0,0,1,0-20.16,22.25,22.25,0,0,1,5.22-7.71,23.33,23.33,0,0,1,8-4.93,31.56,31.56,0,0,1,20.61,0,23.33,23.33,0,0,1,8,4.93,22.25,22.25,0,0,1,5.22,7.71A26.31,26.31,0,0,1,225.08,118.09Zm-7.46,0a19.51,19.51,0,0,0-1.36-7.36,17.9,17.9,0,0,0-3.72-5.84,16.77,16.77,0,0,0-5.69-3.86,19.29,19.29,0,0,0-14.38,0,16.84,16.84,0,0,0-5.66,3.86,17.9,17.9,0,0,0-3.72,5.84,20.62,20.62,0,0,0,0,14.73,17.9,17.9,0,0,0,3.72,5.84,17,17,0,0,0,5.66,3.86,19.29,19.29,0,0,0,14.38,0,16.92,16.92,0,0,0,5.69-3.86,17.9,17.9,0,0,0,3.72-5.84A19.52,19.52,0,0,0,217.62,118.09Z"/><path class="cls-1" d="M261.73,114.81a34.88,34.88,0,0,0,3.83.47c1.41.11,2.68.16,3.82.16H281.7v26.23h-6.95l-.38-2.66a13.27,13.27,0,0,1-4.74,2.62,18.84,18.84,0,0,1-6.13,1,28.35,28.35,0,0,1-9.95-1.67,21.47,21.47,0,0,1-7.74-4.87,22.35,22.35,0,0,1-5-7.74,27.6,27.6,0,0,1-1.8-10.24,28,28,0,0,1,1.77-10.23,21.09,21.09,0,0,1,5.06-7.71,22,22,0,0,1,7.93-4.84,30.42,30.42,0,0,1,10.4-1.67,46.91,46.91,0,0,1,7.14.56,41.85,41.85,0,0,1,6.63,1.58l-1.7,5.88a46,46,0,0,0-6.1-1.48,35.21,35.21,0,0,0-6-.54q-8.53,0-13.12,4.83t-4.58,13.62a23.41,23.41,0,0,0,1.2,7.78,16.66,16.66,0,0,0,3.41,5.81,14.69,14.69,0,0,0,5.38,3.67,18.9,18.9,0,0,0,7.07,1.26,17.68,17.68,0,0,0,6.2-1,12.65,12.65,0,0,0,4.55-2.81V121.44h-4.93a24.12,24.12,0,0,1-4.43-.44,18.67,18.67,0,0,1-4.23-1.26Z"/><path class="cls-1" d="M298.77,141.67V94.58h17q7.39,0,11.78,3.45T332,108.3a12.19,12.19,0,0,1-8.47,12.45l10.11,20.92H325.5L316.08,122h-9.86v19.72Zm17-25.73a9.44,9.44,0,0,0,6.44-2,7.09,7.09,0,0,0,2.28-5.65,7.22,7.22,0,0,0-2.28-5.69,9.35,9.35,0,0,0-6.44-2h-9.55v15.35Z"/><path class="cls-1" d="M368.41,94.58,385,141.67h-7.58l-3.41-10H354.63l-3.35,10H343.7l16.56-47.09Zm-4,7.21c-.3,1.22-.65,2.54-1.05,3.95s-.77,2.6-1.1,3.57l-5.56,16.3H372l-5.5-16.3c-.34-1-.69-2.16-1.07-3.57S364.66,103,364.37,101.79Z"/><path class="cls-1" d="M398.93,141.67V94.58h16.5q7.45,0,11.75,3.51t4.3,10.52q0,7-4.3,10.49t-11.75,3.48h-9v19.09Zm16.5-25.09a9.45,9.45,0,0,0,6.29-2q2.29-2,2.3-6t-2.3-6a9.3,9.3,0,0,0-6.29-2h-9v16Z"/><path class="cls-1" d="M483.24,141.67h-7.46V119.8H454.42v21.87H447V94.58h7.46V113.8h21.36V94.58h7.46Z"/><path class="cls-1" d="M535.5,94.58,520,121.19v20.48h-7.46V121.19L497.14,94.58H505l8.66,15.11q.57,1,1.32,2.49c.51,1,.95,1.93,1.33,2.82.38-.89.82-1.83,1.33-2.82s1-1.82,1.33-2.49l8.65-15.11Z"/><path class="cls-1" d="M617,118.35a29.7,29.7,0,0,1-1.67,10.36,19.8,19.8,0,0,1-4.77,7.46,20.1,20.1,0,0,1-7.59,4.48,31,31,0,0,1-10,1.52c-1.35,0-2.75,0-4.21-.06s-2.87-.1-4.26-.16-2.72-.15-4-.25-2.34-.22-3.23-.35V94.58h15.68a30.17,30.17,0,0,1,10,1.58,19.68,19.68,0,0,1,12.36,12.07A28.59,28.59,0,0,1,617,118.35Zm-7.45,0q0-9.1-4.43-13.43t-12.19-4.33h-8.22v35.2a31.36,31.36,0,0,0,3.92.31c1.51.05,2.95.07,4.3.07q7.77,0,12.19-4.36T609.51,118.35Z"/><path class="cls-1" d="M663.79,141.29c-.93.17-2,.3-3.16.41s-2.43.19-3.76.25-2.7.12-4.11.16-2.79.06-4.14.06-2.68,0-4.14-.06-2.87-.1-4.26-.16-2.71-.15-4-.25-2.31-.22-3.19-.35V94.58h29.13v6H640.53v14.34h21.05v6H640.53v14.91c1.48.13,3.19.21,5.12.25s3.8.07,5.56.07l2.75,0c1,0,2.12-.06,3.26-.1s2.26-.09,3.38-.16,2.18-.15,3.19-.28Z"/><path class="cls-1" d="M690.46,108.11c-.59-.84-1.19-1.78-1.8-2.81s-1.15-2-1.61-3v39.38h-7.46V94.58h9.61l15,21.68,15-21.68h9.6v47.09h-7.45V102.29c-.47,1-1,2-1.61,3s-1.22,2-1.81,2.81l-13.77,19.72Z"/><path class="cls-1" d="M795.81,118.09A26.23,26.23,0,0,1,794,128.17a22.2,22.2,0,0,1-5.22,7.71,23.18,23.18,0,0,1-8,4.93,31.39,31.39,0,0,1-20.61,0,23.18,23.18,0,0,1-8-4.93,22.06,22.06,0,0,1-5.22-7.71,28.24,28.24,0,0,1,0-20.16,22.25,22.25,0,0,1,5.22-7.71,23.33,23.33,0,0,1,8-4.93,31.56,31.56,0,0,1,20.61,0,23.33,23.33,0,0,1,8,4.93A22.39,22.39,0,0,1,794,108,26.31,26.31,0,0,1,795.81,118.09Zm-7.46,0a19.51,19.51,0,0,0-1.36-7.36,17.9,17.9,0,0,0-3.72-5.84,16.77,16.77,0,0,0-5.69-3.86,19.29,19.29,0,0,0-14.38,0,16.84,16.84,0,0,0-5.66,3.86,17.9,17.9,0,0,0-3.72,5.84,20.62,20.62,0,0,0,0,14.73,17.9,17.9,0,0,0,3.72,5.84,17,17,0,0,0,5.66,3.86,19.29,19.29,0,0,0,14.38,0,16.92,16.92,0,0,0,5.69-3.86,17.9,17.9,0,0,0,3.72-5.84A19.52,19.52,0,0,0,788.35,118.09Z"/><path class="cls-1" d="M879.48,118.35a29.7,29.7,0,0,1-1.67,10.36,19.69,19.69,0,0,1-4.78,7.46,20,20,0,0,1-7.58,4.48,31,31,0,0,1-10.05,1.52q-2,0-4.2-.06c-1.45,0-2.87-.1-4.27-.16s-2.71-.15-4-.25-2.33-.22-3.22-.35V94.58H855.4a30.19,30.19,0,0,1,10.05,1.58,19.74,19.74,0,0,1,12.36,12.07A28.59,28.59,0,0,1,879.48,118.35Zm-7.46,0q0-9.1-4.42-13.43t-12.2-4.33h-8.21v35.2a31.36,31.36,0,0,0,3.92.31c1.51.05,2.94.07,4.29.07q7.77,0,12.2-4.36T872,118.35Z"/><path class="cls-1" d="M914,94.58l16.62,47.09H923l-3.41-10h-19.4l-3.35,10h-7.58l16.55-47.09Zm-4,7.21c-.29,1.22-.64,2.54-1,3.95s-.77,2.6-1.11,3.57l-5.56,16.3h15.3l-5.5-16.3q-.51-1.45-1.08-3.57C910.57,104.33,910.24,103,909.94,101.79Z"/><path class="cls-1" d="M972.76,94.58l-15.48,26.61v20.48h-7.46V121.19L934.4,94.58h7.84l8.65,15.11c.38.67.82,1.5,1.33,2.49s.95,1.93,1.33,2.82q.57-1.34,1.32-2.82c.51-1,1-1.82,1.33-2.49l8.66-15.11Z"/><path class="cls-2" d="M79.1,141.67V94.58H95.59q7.45,0,11.75,3.51t4.3,10.52q0,7-4.3,10.49t-11.75,3.48h-9v19.09Zm16.49-25.09a9.45,9.45,0,0,0,6.29-2c1.54-1.31,2.3-3.31,2.3-6s-.76-4.7-2.3-6a9.3,9.3,0,0,0-6.29-2h-9v16Z"/><path class="cls-2" d="M127.13,141.67V94.58h17q7.38,0,11.78,3.45t4.39,10.27a12.16,12.16,0,0,1-8.46,12.45L162,141.67h-8.09L144.44,122h-9.86v19.72Zm17-25.73a9.46,9.46,0,0,0,6.44-2,7.09,7.09,0,0,0,2.28-5.65,7.22,7.22,0,0,0-2.28-5.69,9.36,9.36,0,0,0-6.44-2h-9.55v15.35Z"/><path class="cls-2" d="M225.08,118.09a26.23,26.23,0,0,1-1.86,10.08,22.06,22.06,0,0,1-5.22,7.71,23.18,23.18,0,0,1-8,4.93,31.39,31.39,0,0,1-20.61,0,23.18,23.18,0,0,1-8-4.93,22.06,22.06,0,0,1-5.22-7.71,28.24,28.24,0,0,1,0-20.16,22.25,22.25,0,0,1,5.22-7.71,23.33,23.33,0,0,1,8-4.93,31.56,31.56,0,0,1,20.61,0,23.33,23.33,0,0,1,8,4.93,22.25,22.25,0,0,1,5.22,7.71A26.31,26.31,0,0,1,225.08,118.09Zm-7.46,0a19.51,19.51,0,0,0-1.36-7.36,17.9,17.9,0,0,0-3.72-5.84,16.77,16.77,0,0,0-5.69-3.86,19.29,19.29,0,0,0-14.38,0,16.84,16.84,0,0,0-5.66,3.86,17.9,17.9,0,0,0-3.72,5.84,20.62,20.62,0,0,0,0,14.73,17.9,17.9,0,0,0,3.72,5.84,17,17,0,0,0,5.66,3.86,19.29,19.29,0,0,0,14.38,0,16.92,16.92,0,0,0,5.69-3.86,17.9,17.9,0,0,0,3.72-5.84A19.52,19.52,0,0,0,217.62,118.09Z"/><path class="cls-2" d="M261.73,114.81a34.88,34.88,0,0,0,3.83.47c1.41.11,2.68.16,3.82.16H281.7v26.23h-6.95l-.38-2.66a13.27,13.27,0,0,1-4.74,2.62,18.84,18.84,0,0,1-6.13,1,28.35,28.35,0,0,1-9.95-1.67,21.47,21.47,0,0,1-7.74-4.87,22.35,22.35,0,0,1-5-7.74,27.6,27.6,0,0,1-1.8-10.24,28,28,0,0,1,1.77-10.23,21.09,21.09,0,0,1,5.06-7.71,22,22,0,0,1,7.93-4.84,30.42,30.42,0,0,1,10.4-1.67,46.91,46.91,0,0,1,7.14.56,41.85,41.85,0,0,1,6.63,1.58l-1.7,5.88a46,46,0,0,0-6.1-1.48,35.21,35.21,0,0,0-6-.54q-8.53,0-13.12,4.83t-4.58,13.62a23.41,23.41,0,0,0,1.2,7.78,16.66,16.66,0,0,0,3.41,5.81,14.69,14.69,0,0,0,5.38,3.67,18.9,18.9,0,0,0,7.07,1.26,17.68,17.68,0,0,0,6.2-1,12.65,12.65,0,0,0,4.55-2.81V121.44h-4.93a24.12,24.12,0,0,1-4.43-.44,18.67,18.67,0,0,1-4.23-1.26Z"/><path class="cls-2" d="M298.77,141.67V94.58h17q7.39,0,11.78,3.45T332,108.3a12.19,12.19,0,0,1-8.47,12.45l10.11,20.92H325.5L316.08,122h-9.86v19.72Zm17-25.73a9.44,9.44,0,0,0,6.44-2,7.09,7.09,0,0,0,2.28-5.65,7.22,7.22,0,0,0-2.28-5.69,9.35,9.35,0,0,0-6.44-2h-9.55v15.35Z"/><path class="cls-2" d="M368.41,94.58,385,141.67h-7.58l-3.41-10H354.63l-3.35,10H343.7l16.56-47.09Zm-4,7.21c-.3,1.22-.65,2.54-1.05,3.95s-.77,2.6-1.1,3.57l-5.56,16.3H372l-5.5-16.3c-.34-1-.69-2.16-1.07-3.57S364.66,103,364.37,101.79Z"/><path class="cls-2" d="M398.93,141.67V94.58h16.5q7.45,0,11.75,3.51t4.3,10.52q0,7-4.3,10.49t-11.75,3.48h-9v19.09Zm16.5-25.09a9.45,9.45,0,0,0,6.29-2q2.29-2,2.3-6t-2.3-6a9.3,9.3,0,0,0-6.29-2h-9v16Z"/><path class="cls-2" d="M483.24,141.67h-7.46V119.8H454.42v21.87H447V94.58h7.46V113.8h21.36V94.58h7.46Z"/><path class="cls-2" d="M535.5,94.58,520,121.19v20.48h-7.46V121.19L497.14,94.58H505l8.66,15.11q.57,1,1.32,2.49c.51,1,.95,1.93,1.33,2.82.38-.89.82-1.83,1.33-2.82s1-1.82,1.33-2.49l8.65-15.11Z"/><path class="cls-2" d="M617,118.35a29.7,29.7,0,0,1-1.67,10.36,19.8,19.8,0,0,1-4.77,7.46,20.1,20.1,0,0,1-7.59,4.48,31,31,0,0,1-10,1.52c-1.35,0-2.75,0-4.21-.06s-2.87-.1-4.26-.16-2.72-.15-4-.25-2.34-.22-3.23-.35V94.58h15.68a30.17,30.17,0,0,1,10,1.58,19.68,19.68,0,0,1,12.36,12.07A28.59,28.59,0,0,1,617,118.35Zm-7.45,0q0-9.1-4.43-13.43t-12.19-4.33h-8.22v35.2a31.36,31.36,0,0,0,3.92.31c1.51.05,2.95.07,4.3.07q7.77,0,12.19-4.36T609.51,118.35Z"/><path class="cls-2" d="M663.79,141.29c-.93.17-2,.3-3.16.41s-2.43.19-3.76.25-2.7.12-4.11.16-2.79.06-4.14.06-2.68,0-4.14-.06-2.87-.1-4.26-.16-2.71-.15-4-.25-2.31-.22-3.19-.35V94.58h29.13v6H640.53v14.34h21.05v6H640.53v14.91c1.48.13,3.19.21,5.12.25s3.8.07,5.56.07l2.75,0c1,0,2.12-.06,3.26-.1s2.26-.09,3.38-.16,2.18-.15,3.19-.28Z"/><path class="cls-2" d="M690.46,108.11c-.59-.84-1.19-1.78-1.8-2.81s-1.15-2-1.61-3v39.38h-7.46V94.58h9.61l15,21.68,15-21.68h9.6v47.09h-7.45V102.29c-.47,1-1,2-1.61,3s-1.22,2-1.81,2.81l-13.77,19.72Z"/><path class="cls-2" d="M795.81,118.09A26.23,26.23,0,0,1,794,128.17a22.2,22.2,0,0,1-5.22,7.71,23.18,23.18,0,0,1-8,4.93,31.39,31.39,0,0,1-20.61,0,23.18,23.18,0,0,1-8-4.93,22.06,22.06,0,0,1-5.22-7.71,28.24,28.24,0,0,1,0-20.16,22.25,22.25,0,0,1,5.22-7.71,23.33,23.33,0,0,1,8-4.93,31.56,31.56,0,0,1,20.61,0,23.33,23.33,0,0,1,8,4.93A22.39,22.39,0,0,1,794,108,26.31,26.31,0,0,1,795.81,118.09Zm-7.46,0a19.51,19.51,0,0,0-1.36-7.36,17.9,17.9,0,0,0-3.72-5.84,16.77,16.77,0,0,0-5.69-3.86,19.29,19.29,0,0,0-14.38,0,16.84,16.84,0,0,0-5.66,3.86,17.9,17.9,0,0,0-3.72,5.84,20.62,20.62,0,0,0,0,14.73,17.9,17.9,0,0,0,3.72,5.84,17,17,0,0,0,5.66,3.86,19.29,19.29,0,0,0,14.38,0,16.92,16.92,0,0,0,5.69-3.86,17.9,17.9,0,0,0,3.72-5.84A19.52,19.52,0,0,0,788.35,118.09Z"/><path class="cls-2" d="M879.48,118.35a29.7,29.7,0,0,1-1.67,10.36,19.69,19.69,0,0,1-4.78,7.46,20,20,0,0,1-7.58,4.48,31,31,0,0,1-10.05,1.52q-2,0-4.2-.06c-1.45,0-2.87-.1-4.27-.16s-2.71-.15-4-.25-2.33-.22-3.22-.35V94.58H855.4a30.19,30.19,0,0,1,10.05,1.58,19.74,19.74,0,0,1,12.36,12.07A28.59,28.59,0,0,1,879.48,118.35Zm-7.46,0q0-9.1-4.42-13.43t-12.2-4.33h-8.21v35.2a31.36,31.36,0,0,0,3.92.31c1.51.05,2.94.07,4.29.07q7.77,0,12.2-4.36T872,118.35Z"/><path class="cls-2" d="M914,94.58l16.62,47.09H923l-3.41-10h-19.4l-3.35,10h-7.58l16.55-47.09Zm-4,7.21c-.29,1.22-.64,2.54-1,3.95s-.77,2.6-1.11,3.57l-5.56,16.3h15.3l-5.5-16.3q-.51-1.45-1.08-3.57C910.57,104.33,910.24,103,909.94,101.79Z"/><path class="cls-2" d="M972.76,94.58l-15.48,26.61v20.48h-7.46V121.19L934.4,94.58h7.84l8.65,15.11c.38.67.82,1.5,1.33,2.49s.95,1.93,1.33,2.82q.57-1.34,1.32-2.82c.51-1,1-1.82,1.33-2.49l8.66-15.11Z"/><path class="cls-3" d="M90,186.45a13.22,13.22,0,0,0-3.1.42,16.3,16.3,0,0,0-3.39,1.24l-1.27-3.21A16.18,16.18,0,0,1,86,183.58a17.63,17.63,0,0,1,4-.48,11.47,11.47,0,0,1,3.81.58,7.45,7.45,0,0,1,2.74,1.64,7.05,7.05,0,0,1,1.66,2.52,8.84,8.84,0,0,1,.56,3.23,9.16,9.16,0,0,1-1.25,4.67,19.36,19.36,0,0,1-3.79,4.49l-6.83,6.31H99.31v3.35H81.9v-3.35l8.35-7.72A17.31,17.31,0,0,0,93.48,195a7.55,7.55,0,0,0,1.11-4,5.09,5.09,0,0,0-.32-1.8,4.08,4.08,0,0,0-.92-1.46,4.48,4.48,0,0,0-1.46-1A4.8,4.8,0,0,0,90,186.45Z"/><path class="cls-3" d="M126.52,196.74q0,6.84-2.42,10.24a8.68,8.68,0,0,1-13.78,0q-2.41-3.4-2.41-10.24t2.41-10.24a8.68,8.68,0,0,1,13.78,0Q126.51,189.91,126.52,196.74Zm-14.45,0q0,5.14,1.35,7.72a4.08,4.08,0,0,0,7.58,0q1.36-2.58,1.36-7.72T121,189a4.08,4.08,0,0,0-7.58,0Q112.07,191.6,112.07,196.74Z"/><path class="cls-3" d="M140.23,183.63h4v26.26h-4.16V188.14l-4,2.57-2-3Z"/><path class="cls-3" d="M164.05,210.42a17,17,0,0,1-3.36-.32,19.2,19.2,0,0,1-2.91-.81l.92-3.17a14.22,14.22,0,0,0,2.61.7,15.26,15.26,0,0,0,2.74.25,5.38,5.38,0,0,0,2.44-.58,5.69,5.69,0,0,0,1.94-1.7,8.39,8.39,0,0,0,1.26-2.71,13.27,13.27,0,0,0,.46-3.68,7.2,7.2,0,0,1-2.29,1.41,8,8,0,0,1-3,.56,10.75,10.75,0,0,1-3.65-.6,8.52,8.52,0,0,1-2.89-1.71,7.46,7.46,0,0,1-1.88-2.71,9.25,9.25,0,0,1-.67-3.61,9.63,9.63,0,0,1,.63-3.55,7.51,7.51,0,0,1,1.83-2.73,8.35,8.35,0,0,1,2.88-1.74,10.76,10.76,0,0,1,3.75-.62,8.88,8.88,0,0,1,6,2,9.33,9.33,0,0,1,2.91,5.68c.07.45.14.94.21,1.5s.13,1.11.18,1.67.07,1.12.08,1.68,0,1.05,0,1.49a23.55,23.55,0,0,1-.79,5.91,11.73,11.73,0,0,1-2.05,4.16,8.37,8.37,0,0,1-3.19,2.45A10.5,10.5,0,0,1,164.05,210.42Zm5.78-18.68a6.1,6.1,0,0,0-.37-2.21,4.62,4.62,0,0,0-2.6-2.71,5.38,5.38,0,0,0-3.92,0,4.64,4.64,0,0,0-1.56,1.06,4.6,4.6,0,0,0-1,1.65,6.76,6.76,0,0,0,0,4.41,4.62,4.62,0,0,0,2.6,2.71,5.38,5.38,0,0,0,3.92,0,4.66,4.66,0,0,0,1.57-1.05,4.76,4.76,0,0,0,1-1.66A6.08,6.08,0,0,0,169.83,191.74Z"/><path class="cls-3" d="M181.89,209.57a2.67,2.67,0,0,1,2.75-2.71,2.71,2.71,0,1,1-2,4.63A2.67,2.67,0,0,1,181.89,209.57Z"/><path class="cls-3" d="M230.35,196.74q0,6.84-2.41,10.24a8.68,8.68,0,0,1-13.78,0q-2.41-3.4-2.42-10.24t2.42-10.24a8.68,8.68,0,0,1,13.78,0Q230.36,189.91,230.35,196.74Zm-14.45,0q0,5.14,1.36,7.72a4.07,4.07,0,0,0,7.57,0q1.36-2.58,1.36-7.72T224.83,189a4.07,4.07,0,0,0-7.57,0Q215.9,191.6,215.9,196.74Z"/><path class="cls-3" d="M238.39,183.81h18v3.31l-9.59,22.77h-4.26l9.55-22.74H238.39Z"/><path class="cls-3" d="M264.57,209.57a2.79,2.79,0,0,1,4.73-1.92,2.71,2.71,0,0,1-2,4.63,2.68,2.68,0,0,1-2.75-2.71Z"/><path class="cls-3" d="M303.27,186.45a13.29,13.29,0,0,0-3.1.42,16,16,0,0,0-3.38,1.24l-1.27-3.21a16.1,16.1,0,0,1,3.77-1.32,17.7,17.7,0,0,1,4-.48,11.43,11.43,0,0,1,3.81.58,7.57,7.57,0,0,1,2.75,1.64,7.05,7.05,0,0,1,1.66,2.52,9.05,9.05,0,0,1,.56,3.23,9.26,9.26,0,0,1-1.25,4.67,19.87,19.87,0,0,1-3.79,4.49l-6.84,6.31h12.44v3.35H295.2v-3.35l8.35-7.72a17.31,17.31,0,0,0,3.23-3.79,7.55,7.55,0,0,0,1.11-4,5.09,5.09,0,0,0-.32-1.8,4.06,4.06,0,0,0-.91-1.46,4.53,4.53,0,0,0-1.47-1A4.73,4.73,0,0,0,303.27,186.45Z"/><path class="cls-3" d="M321.07,183.81h18v3.31l-9.58,22.77h-4.27l9.55-22.74H321.07Z"/><path class="cls-3" d="M347.26,209.57a2.67,2.67,0,0,1,2.75-2.71,2.61,2.61,0,0,1,2,.79,2.75,2.75,0,0,1,0,3.84,2.61,2.61,0,0,1-2,.79,2.67,2.67,0,0,1-2.75-2.71Z"/><path class="cls-3" d="M382.64,183.63h4v26.26H382.5V188.14l-4,2.57-2-3Z"/><path class="cls-3" d="M397.41,201.57l13-17.94h4.16v17.94h3.35v3.35h-3.35v5h-4.16v-5h-13Zm13,0V188.85c-.24.54-.52,1.1-.85,1.69a15.06,15.06,0,0,1-1.05,1.62l-5,6.8c-.33.42-.72.89-1.15,1.39a14.42,14.42,0,0,1-1.15,1.22Z"/><path class="cls-3" d="M425.54,189.94a2.68,2.68,0,0,1,2.75-2.72,2.72,2.72,0,1,1-2,4.64A2.67,2.67,0,0,1,425.54,189.94Zm0,13.46a2.67,2.67,0,0,1,2.75-2.71,2.72,2.72,0,1,1,0,5.43,2.68,2.68,0,0,1-2.75-2.72Z"/><path class="cls-3" d="M458.32,196.74q0,6.84-2.42,10.24a8.68,8.68,0,0,1-13.78,0q-2.42-3.4-2.41-10.24t2.41-10.24a8.68,8.68,0,0,1,13.78,0Q458.32,189.91,458.32,196.74Zm-14.45,0q0,5.14,1.35,7.72a4.08,4.08,0,0,0,7.58,0c.9-1.72,1.36-4.29,1.36-7.72s-.46-6-1.36-7.72a4.08,4.08,0,0,0-7.58,0Q443.87,191.6,443.87,196.74Z"/><path class="cls-3" d="M485.1,196.74q0,6.84-2.41,10.24a8.68,8.68,0,0,1-13.78,0q-2.42-3.4-2.42-10.24t2.42-10.24a8.68,8.68,0,0,1,13.78,0Q485.11,189.91,485.1,196.74Zm-14.45,0q0,5.14,1.36,7.72a4.08,4.08,0,0,0,7.58,0q1.35-2.58,1.35-7.72T479.59,189a4.08,4.08,0,0,0-7.58,0Q470.65,191.6,470.65,196.74Z"/><path class="cls-3" d="M504.63,195.3a8.33,8.33,0,0,0,1.25,1.3,2,2,0,0,0,2.8-.33,7.17,7.17,0,0,0,1.34-2.1l3.42,1.73a8,8,0,0,1-2.45,3.34,5.91,5.91,0,0,1-3.68,1.13,6.24,6.24,0,0,1-3.25-.83,8.42,8.42,0,0,1-2.39-2.09,8,8,0,0,0-1.25-1.31,2.12,2.12,0,0,0-1.32-.42,2.08,2.08,0,0,0-1.48.76,7,7,0,0,0-1.34,2.09l-3.42-1.72a8,8,0,0,1,2.45-3.35,5.93,5.93,0,0,1,3.68-1.13,6.3,6.3,0,0,1,3.24.83A8.34,8.34,0,0,1,504.63,195.3Z"/><path class="cls-3" d="M526.73,183.63h4v26.26h-4.16V188.14l-4,2.57-2-3Z"/><path class="cls-3" d="M551.65,210.77a13,13,0,0,1-3.72-.51,8.56,8.56,0,0,1-3-1.52,6.83,6.83,0,0,1-1.94-2.48,8,8,0,0,1-.69-3.42,6.76,6.76,0,0,1,1.34-4.13,7,7,0,0,1,3.53-2.5,6.3,6.3,0,0,1-2.93-2.24,6.09,6.09,0,0,1-1.2-3.75,7.86,7.86,0,0,1,.57-3,6.31,6.31,0,0,1,1.65-2.36,7.73,7.73,0,0,1,2.7-1.54,12.57,12.57,0,0,1,7.29,0,7.73,7.73,0,0,1,2.7,1.54,6.45,6.45,0,0,1,1.66,2.36,8,8,0,0,1,.56,3A6.09,6.09,0,0,1,559,194a6.33,6.33,0,0,1-2.92,2.24,7,7,0,0,1,3.52,2.5,6.76,6.76,0,0,1,1.34,4.13,8,8,0,0,1-.69,3.42,6.81,6.81,0,0,1-1.93,2.48,8.74,8.74,0,0,1-3,1.52A13,13,0,0,1,551.65,210.77Zm0-12.8a5.89,5.89,0,0,0-2.21.39,5,5,0,0,0-1.62,1,4.37,4.37,0,0,0-1,1.52,4.83,4.83,0,0,0,0,3.56,4.33,4.33,0,0,0,1,1.51,4.81,4.81,0,0,0,1.62,1,6.43,6.43,0,0,0,4.41,0,4.62,4.62,0,0,0,1.62-1,4.35,4.35,0,0,0,1-1.51,5,5,0,0,0,0-3.56,4.39,4.39,0,0,0-1-1.52,4.76,4.76,0,0,0-1.62-1A5.87,5.87,0,0,0,551.65,198Zm0-3.34a4.29,4.29,0,0,0,3.22-1.22,4.53,4.53,0,0,0,0-6.1,4.9,4.9,0,0,0-6.45,0,4.53,4.53,0,0,0,0,6.1A4.3,4.3,0,0,0,551.65,194.63Z"/><path class="cls-3" d="M569.62,189.94a2.75,2.75,0,1,1,4.72,1.92,2.85,2.85,0,0,1-3.94,0A2.64,2.64,0,0,1,569.62,189.94Zm0,13.46a2.64,2.64,0,0,1,.78-1.92,2.85,2.85,0,0,1,3.94,0,2.75,2.75,0,1,1-4.72,1.92Z"/><path class="cls-3" d="M602.4,196.74q0,6.84-2.41,10.24a8.69,8.69,0,0,1-13.79,0q-2.41-3.4-2.41-10.24t2.41-10.24a8.69,8.69,0,0,1,13.79,0Q602.39,189.91,602.4,196.74Zm-14.45,0q0,5.14,1.36,7.72a4.07,4.07,0,0,0,7.57,0q1.36-2.58,1.36-7.72T596.88,189a4.07,4.07,0,0,0-7.57,0Q587.94,191.6,588,196.74Z"/><path class="cls-3" d="M629.19,196.74q0,6.84-2.42,10.24A8.68,8.68,0,0,1,613,207q-2.41-3.4-2.41-10.24T613,186.5a8.68,8.68,0,0,1,13.78,0Q629.18,189.91,629.19,196.74Zm-14.45,0q0,5.14,1.35,7.72a4.08,4.08,0,0,0,7.58,0c.9-1.72,1.36-4.29,1.36-7.72s-.46-6-1.36-7.72a4.08,4.08,0,0,0-7.58,0Q614.74,191.6,614.74,196.74Z"/><path class="cls-3" d="M636.62,209.57a2.65,2.65,0,0,1,2.75-2.71,2.54,2.54,0,0,1,2,.77,3,3,0,0,1,.79,1.94,7.23,7.23,0,0,1-.07,1.76,7.39,7.39,0,0,1-3.95,5.54l-1-1.34a7,7,0,0,0,1.62-1.5,3.84,3.84,0,0,0,.74-1.53l0-.22h-.14a2.68,2.68,0,0,1-2-.77A2.62,2.62,0,0,1,636.62,209.57Z"/><path class="cls-3" d="M681.07,208a24.16,24.16,0,0,0,4.28-.39,19.12,19.12,0,0,0,3.82-1.06l.92,3a22.07,22.07,0,0,1-4.16,1.18,26.38,26.38,0,0,1-4.86.44,17.07,17.07,0,0,1-5.94-1,13.9,13.9,0,0,1-4.74-2.88,13.24,13.24,0,0,1-3.16-4.53,16.2,16.2,0,0,1,0-11.94,13.06,13.06,0,0,1,3.16-4.51,14,14,0,0,1,4.74-2.86,17.07,17.07,0,0,1,5.94-1,17.87,17.87,0,0,1,5.94,1,14,14,0,0,1,4.74,2.79,12.92,12.92,0,0,1,3.15,4.41,14.31,14.31,0,0,1,1.15,5.83,10.79,10.79,0,0,1-.52,3.43,7.91,7.91,0,0,1-1.39,2.61,6.14,6.14,0,0,1-2.08,1.66,5.69,5.69,0,0,1-2.53.58,7.19,7.19,0,0,1-2.86-.48,5.37,5.37,0,0,1-1.8-1.21,5.82,5.82,0,0,1-2,1.2,7.39,7.39,0,0,1-2.49.46,8.4,8.4,0,0,1-3.22-.59,6.77,6.77,0,0,1-2.44-1.62,7.24,7.24,0,0,1-1.55-2.48,9.75,9.75,0,0,1,0-6.4,7.24,7.24,0,0,1,1.55-2.5,6.91,6.91,0,0,1,2.44-1.62,8.4,8.4,0,0,1,3.22-.58,6.26,6.26,0,0,1,1.16.12,9.79,9.79,0,0,1,1.24.32,6.26,6.26,0,0,1,1.07.45,2.83,2.83,0,0,1,.73.55l.17-1.09h3.91V200a1.64,1.64,0,0,0,.34,1.11,1.17,1.17,0,0,0,.93.37c.57,0,1.07-.45,1.5-1.36a8.71,8.71,0,0,0,.65-3.75,11.93,11.93,0,0,0-.79-4.46,9.74,9.74,0,0,0-2.24-3.4,10.06,10.06,0,0,0-3.47-2.19,12.63,12.63,0,0,0-4.49-.77,11.54,11.54,0,0,0-4.46.83,9.94,9.94,0,0,0-3.47,2.32,10.67,10.67,0,0,0-2.26,3.54,12.1,12.1,0,0,0-.81,4.48,11.73,11.73,0,0,0,.83,4.44,10.94,10.94,0,0,0,2.29,3.56,10.23,10.23,0,0,0,3.47,2.36A11.15,11.15,0,0,0,681.07,208Zm-.36-6.56a4,4,0,0,0,2.81-1,3.41,3.41,0,0,0,1-2.58v-2.18a3.41,3.41,0,0,0-1-2.58,4,4,0,0,0-2.81-1,3.63,3.63,0,0,0-2.9,1.3,5.61,5.61,0,0,0,0,6.7A3.63,3.63,0,0,0,680.71,201.39Z"/><path class="cls-3" d="M704.43,191a9.32,9.32,0,0,1,.6-3.41,7.31,7.31,0,0,1,1.75-2.64,7.76,7.76,0,0,1,2.76-1.71,10.43,10.43,0,0,1,3.63-.6,10,10,0,0,1,3.88.71,7.72,7.72,0,0,1,2.82,1.94h6.56v-2.65h4.16v18.47h-4.16v-4.33H719.8a7.52,7.52,0,0,1-2.8,1.9,10.18,10.18,0,0,1-3.83.67,10.43,10.43,0,0,1-3.63-.6,7.76,7.76,0,0,1-2.76-1.71A7.31,7.31,0,0,1,705,194.4,9.3,9.3,0,0,1,704.43,191Zm4.16,0a5.31,5.31,0,0,0,1.22,3.57,4.67,4.67,0,0,0,6.73,0,5.85,5.85,0,0,0,0-7.15,4.67,4.67,0,0,0-6.73,0A5.32,5.32,0,0,0,708.59,191Zm22,11.87v12.41h-4.16v-9.06H708.7v-3.35ZM721.88,191a8.41,8.41,0,0,1-.32,2.43h4.87v-4.8H721.6a11.08,11.08,0,0,1,.21,1.15A9.54,9.54,0,0,1,721.88,191Z"/><path class="cls-3" d="M751.7,187.75a6.33,6.33,0,0,0,.21,1.68,4.52,4.52,0,0,0,.85,1.57,16.48,16.48,0,0,0,2.87,2.85,36,36,0,0,0,3.72,2.57l-2.15,3.14a30.38,30.38,0,0,1-4.14-2.89,24.36,24.36,0,0,1-3.44-3.45,26.32,26.32,0,0,1-3.49,3.63,26.05,26.05,0,0,1-4.44,3.06l-2.22-3.13a35.5,35.5,0,0,0,4-2.81,16,16,0,0,0,2.89-3,5.5,5.5,0,0,0,.84-1.57,5.29,5.29,0,0,0,.25-1.68v-4.4h4.23Zm3.66,27.35-3,0c-1,0-1.95,0-2.89-.09s-1.82-.08-2.64-.14-1.56-.12-2.22-.19V202.38H766v12.23c-1.32.14-2.93.26-4.83.35S757.34,215.1,755.36,215.1Zm-6.55-3.45c1.13,0,2.25.08,3.38.09l3.17,0c1,0,2,0,3.12,0s2.24-.06,3.37-.11v-5.88h-13ZM766,189h4.54v3.34H766v8.29h-4.16v-18H766Z"/><path class="cls-3" d="M799.74,191.17c-.33-.47-.66-1-1-1.57a18.27,18.27,0,0,1-.89-1.67v22h-4.16V183.63H799l8.39,12.09,8.39-12.09h5.36v26.26H817v-22c-.26.54-.56,1.1-.9,1.67s-.68,1.1-1,1.57l-7.69,11Z"/><path class="cls-3" d="M839.57,193.46a17.06,17.06,0,0,0-3.18.32,20.88,20.88,0,0,0-3.35.95l-1-3.28a21.41,21.41,0,0,1,3.73-.93,24.32,24.32,0,0,1,3.85-.33,10,10,0,0,1,6.27,1.7,6.16,6.16,0,0,1,2.18,5.17v12.83h-3.8l-.14-1.66a6.1,6.1,0,0,1-2.4,1.6,9.05,9.05,0,0,1-3.35.59,10,10,0,0,1-6-1.59,6.56,6.56,0,0,1,0-9.8,10,10,0,0,1,6-1.58,27.14,27.14,0,0,1,2.79.14,25.87,25.87,0,0,1,2.82.42v-.95a3.43,3.43,0,0,0-1-2.65A4.89,4.89,0,0,0,839.57,193.46Zm-1.24,13.68a6.7,6.7,0,0,0,4.2-1.11,3.25,3.25,0,0,0,1.41-2.59v-2.33c-1-.14-2-.24-3-.3s-1.83-.09-2.65-.09a4.79,4.79,0,0,0-3.06.83,3.26,3.26,0,0,0,0,4.76A4.79,4.79,0,0,0,838.33,207.14Z"/><path class="cls-3" d="M861.81,192.65a4.32,4.32,0,0,1,1.78-1.79,5.16,5.16,0,0,1,2.62-.67c.61,0,1.24,0,1.87.08a13.39,13.39,0,0,1,1.73.27l-.71,3.35q-.71-.18-1.44-.3a8.14,8.14,0,0,0-1.45-.13,4.42,4.42,0,0,0-3.26,1.15,4.51,4.51,0,0,0-1.14,3.33v11.95h-4.09V190.71h3.91Z"/><path class="cls-3" d="M890.57,208a4.92,4.92,0,0,1-2,1.71,6.5,6.5,0,0,1-3,.69q-4.17,0-6.28-2.12a7.9,7.9,0,0,1-2.11-5.85V190.71h4.09v11.74a4.63,4.63,0,0,0,1.25,3.38,4.49,4.49,0,0,0,3.4,1.31,4.43,4.43,0,0,0,3.38-1.31,4.71,4.71,0,0,0,1.24-3.38V190.71h4.08v19.18h-3.91Z"/><path class="cls-3" d="M909.21,183.63h4v26.26h-4.16V188.14l-4,2.57-2-3Z"/><path class="cls-3" d="M934.13,210.77a13,13,0,0,1-3.72-.51,8.56,8.56,0,0,1-3-1.52,6.94,6.94,0,0,1-1.94-2.48,8,8,0,0,1-.69-3.42,6.76,6.76,0,0,1,1.34-4.13,7,7,0,0,1,3.53-2.5,6.35,6.35,0,0,1-2.93-2.24,6.09,6.09,0,0,1-1.2-3.75,7.86,7.86,0,0,1,.57-3,6.42,6.42,0,0,1,1.65-2.36,7.73,7.73,0,0,1,2.7-1.54,12.61,12.61,0,0,1,7.3,0,7.68,7.68,0,0,1,2.69,1.54,6.45,6.45,0,0,1,1.66,2.36,7.86,7.86,0,0,1,.56,3A6.15,6.15,0,0,1,941.5,194a6.35,6.35,0,0,1-2.93,2.24,7,7,0,0,1,3.52,2.5,6.7,6.7,0,0,1,1.34,4.13,8.19,8.19,0,0,1-.68,3.42,6.94,6.94,0,0,1-1.94,2.48,8.65,8.65,0,0,1-3,1.52A13,13,0,0,1,934.13,210.77Zm0-12.8a5.83,5.83,0,0,0-2.2.39,4.91,4.91,0,0,0-1.63,1,4.37,4.37,0,0,0-1,1.52,4.83,4.83,0,0,0,0,3.56,4.33,4.33,0,0,0,1,1.51,4.75,4.75,0,0,0,1.63,1,6.4,6.4,0,0,0,4.4,0,4.62,4.62,0,0,0,1.62-1,4.22,4.22,0,0,0,1-1.51,4.83,4.83,0,0,0,0-3.56,4.26,4.26,0,0,0-1-1.52,4.76,4.76,0,0,0-1.62-1A5.83,5.83,0,0,0,934.13,198Zm0-3.34a4.27,4.27,0,0,0,3.22-1.22,4.53,4.53,0,0,0,0-6.1,4.44,4.44,0,0,0-6.45,6.1A4.31,4.31,0,0,0,934.13,194.63Z"/><path class="cls-3" d="M970.22,196.74q0,6.84-2.41,10.24A8.69,8.69,0,0,1,954,207q-2.41-3.4-2.41-10.24T954,186.5a8.69,8.69,0,0,1,13.79,0Q970.21,189.91,970.22,196.74Zm-14.45,0q0,5.14,1.36,7.72a4.07,4.07,0,0,0,7.57,0q1.37-2.58,1.36-7.72T964.7,189a4.07,4.07,0,0,0-7.57,0Q955.77,191.6,955.77,196.74Z"/><rect class="cls-4" x="6" y="6" width="1034.97" height="294.51"/></g></g></svg>
